<?xml version="1.0" encoding="utf-8"?>
<!-- Generator: Adobe Illustrator 25.1.0, SVG Export Plug-In . SVG Version: 6.00 Build 0)  -->
<svg version="1.1" id="Calque_1" xmlns="http://www.w3.org/2000/svg" xmlns:xlink="http://www.w3.org/1999/xlink" x="0px" y="0px"
	 viewBox="0 0 2500 2500" style="enable-background:new 0 0 2500 2500;" xml:space="preserve">
<style type="text/css">
	.st0{fill-rule:evenodd;clip-rule:evenodd;fill:#EBEAEB;fill-opacity:0;}
	.st1{fill-rule:evenodd;clip-rule:evenodd;fill:#EBEAEB;}
</style>
<g>
	<path class="st0" d="M0,0h2500v2500H0V0z"/>
	<path class="st1" d="M1041.8,1202.8l-279,9.9l264.9,14.7L1041.8,1202.8z M1008.4,1261.4l-279.6,9.9l265.9,14.8L1008.4,1261.4
		L1008.4,1261.4z M975,1320.5l-279.3,9.8l265.6,14.8L975,1320.5z M942.3,1379.3l-279.6,10l265.2,14.7L942.3,1379.3z M1284.2,906.8
		l-356.1,12.7l357.1,19.8L1284.2,906.8L1284.2,906.8z M1281.9,848.7l-319.9,11.2l320.9,18.4L1281.9,848.7L1281.9,848.7z
		 M1279.6,792.5l-285,9.4l286.4,15.9L1279.6,792.5z M1277.7,734.9l-249.8,8.4l250.8,14.8L1277.7,734.9z M1276.1,688.4h-217.3
		l217.6,11.5L1276.1,688.4z M908.6,1438.1l-279,10.1H903L908.6,1438.1z"/>
	<path class="st1" d="M1854.1,690.2h-402l-11.4,20.2l201.2,10.7c2.4,0,2.4,3.3-1,3.3l-211.9,7.1l-20.4,35.8l199.8,11.8
		c2.7,0.3,2,4-0.3,4l-212.3,7l-19.8,34.3l199.5,11.1c4.4,0.3,4.4,4,0,4l-211.9,7.4l-20.1,35.8l198.8,11.4c4.4,0.3,4,4.4,0,4.4
		l-211.9,7.5l-20.5,35.4l199.2,11.1c3,0.3,3.4,4-0.7,4l-610.6,20.5l579.4,32.2c3.7,0,3.3,4.7-0.7,4.7l-611.6,21.8l579.4,32.2
		c2.7,0,3.3,4.4-0.7,4.4l-612.6,22.1l579.4,32.2c2.4,0.3,4.7,4.7-0.3,5l-611.6,21.8l579.4,32.2c1.7,0.3,3.3,4.7-0.7,4.7l-307.8,11
		l1,27.8l274.3,15.2c2,0.3,3,4.4-0.7,4.4l-272.6,9.7l1.3,31.1l238.1,13.2c2.3,0.3,3.3,5-0.7,5l-236,8.3l1,34.1l202.9,11.3
		c2.3,0.3,3,4.7-1,4.7l-200.8,7.2l1.3,37.5l167.6,9.3c2.4,0.3,2.4,4.4-1,4.4l-166,6l0.7,16.1h541.2c143.5,0,272.2-104.6,296.4-187.8
		c24.2-83.1,24.2-158.3-91.2-195.8c64.4-14.8,176.4-87.4,198.5-187.8C2043.8,783.8,2010.3,690.6,1854.1,690.2L1854.1,690.2z
		 M1581.9,1272.6h-166.3l93.9-166.3h123.4C1760.2,1106.3,1698.5,1272.6,1581.9,1272.6z M1797.1,915.8c-5.4,20.1-45.6,71.1-96.6,71.1
		h-123.4l79.1-139.5h63C1799.8,850.1,1802.4,895.7,1797.1,915.8L1797.1,915.8z M2463.2,1687.4c0-64.4-53.6-118.4-118-118.4
		c-66.1,0-120.1,54.8-120.1,122.2c-0.3,66.3,53.2,120.2,119.5,120.5c0.3,0,0.7,0,1,0c48.9,0,95.4-33.5,109.2-79.1h-61.1
		c-12.1,19.2-28,28-49.8,28c-27.6,0-52.3-18.8-60.2-45.6h176.6C2462.4,1702,2463.2,1695.7,2463.2,1687.4z M2282,1671.2
		c8-31.4,33.1-51.5,64-51.5c31,0,55.3,19.7,62.8,51.5H2282z M1669.9,1580.1v18.8c-17.6-18.8-43-29.5-70.2-29.5
		c-60.3,0-111.6,51.5-111.6,118.4c0,63.2,45.4,119.8,112.8,119.8c29.7,0,52.3-6.9,73.6-31.1v29.7h51.1v-226.1L1669.9,1580.1
		L1669.9,1580.1z M1607.6,1759.7c-38.8,0-70.2-31.4-70.2-70.2c0-38.8,31.4-70.2,70.2-70.2c38.8,0,70.2,31.4,70.2,70.2
		C1677.7,1728.3,1646.3,1759.7,1607.6,1759.7z M148.1,1568.9c-23,0-40.6,8-59.8,27.6v-22.2H36.8v231.8h55.7V1697
		c0-29.7,2.5-77,43.5-77c38.5,0,42.7,44.4,42.7,72.8v113.4h55.7v-124.3c0-32.6-2.5-48.1-11.3-66.5
		C210,1587.7,179.5,1568.9,148.1,1568.9L148.1,1568.9z M493.9,1687.4c0-64.4-53.6-118.4-118-118.4c-66.1,0-120.1,54.8-120.1,122.2
		c-0.3,66.3,53.2,120.2,119.5,120.5c0.3,0,0.7,0,1,0c49,0,95.4-33.5,109.2-79.1h-61.1c-12.1,19.2-28,28-49.8,28
		c-27.6,0-52.3-18.8-60.3-45.6H491C493.1,1702,493.9,1695.7,493.9,1687.4L493.9,1687.4z M312.7,1671.2c8-31.4,33.1-51.5,64-51.5
		s55.2,19.7,62.8,51.5H312.7z M1409.6,1806h55.7v-309.3h-55.7V1806z M1872.5,1568.9c-23,0-40.6,8-59.9,27.6v-22.2h-51.5v231.8h55.7
		V1697c0-29.7,2.5-77,43.5-77c38.5,0,42.7,44.4,42.7,72.8v113.4h55.7v-124.3c0-32.6-2.5-48.1-11.3-66.5
		C1934.4,1587.7,1903.8,1568.9,1872.5,1568.9L1872.5,1568.9z M2097.6,1620c25.5,0,40.2,8.4,54,31.8h62.7
		c-17.1-49.8-61.1-82.9-114.7-82.9c-67.8,0-122.2,54-122.2,120.5c0,66.9,54.8,122.2,122.2,122.2c34.7-0.2,67.8-14.9,91.2-40.6
		c11.7-13,15.9-20.5,23.4-41h-62.7c-13,20.1-29.7,30.5-50.6,30.5c-38.9,0-67.8-30.1-67.8-70.3
		C2033.1,1649.7,2060.8,1620,2097.6,1620L2097.6,1620z M706.6,1715.8l-39.4-141.4h-44.8l-39.8,141.4l-47.1-141.4h-49.1l77.4,231.8
		h35.7l45.2-150.2l43.9,150.2H726l74.2-231.8h-46L706.6,1715.8L706.6,1715.8z M1004.8,1569.2c-27.2,0-52.6,10.7-70.2,29.5v-101.9
		h-55.7V1806h51v-29.7c21.3,24.3,43.9,31.1,73.7,31.1c67.4,0,112.8-56.7,112.8-119.8C1116.5,1620.6,1065.1,1569.2,1004.8,1569.2
		L1004.8,1569.2z M997,1759.7c-38.8,0-70.2-31.4-70.2-70.2c0-38.8,31.4-70.2,70.2-70.2l0,0c38.8,0,70.2,31.4,70.2,70.2
		C1067.1,1728.3,1035.7,1759.7,997,1759.7z M1316.8,1580.1v18.8c-17.6-18.8-43-29.5-70.2-29.5c-60.3,0-111.7,51.5-111.7,118.4
		c0,63.2,45.5,119.8,112.8,119.8c29.7,0,52.3-6.9,73.7-31.1v29.7h51v-226.1L1316.8,1580.1L1316.8,1580.1z M1254.4,1759.7
		c-38.8,0-70.2-31.4-70.2-70.2c0-38.8,31.4-70.2,70.2-70.2c38.8,0,70.2,31.4,70.2,70.2C1324.6,1728.3,1293.2,1759.7,1254.4,1759.7z"
		/>
</g>
</svg>
