<?xml version="1.0" encoding="utf-8"?>
<!-- Generator: Adobe Illustrator 25.1.0, SVG Export Plug-In . SVG Version: 6.00 Build 0)  -->
<svg version="1.1"
	 id="svg2" xmlns:cc="http://creativecommons.org/ns#" xmlns:dc="http://purl.org/dc/elements/1.1/" xmlns:rdf="http://www.w3.org/1999/02/22-rdf-syntax-ns#" xmlns:svg="http://www.w3.org/2000/svg"
	 xmlns="http://www.w3.org/2000/svg" xmlns:xlink="http://www.w3.org/1999/xlink" x="0px" y="0px" viewBox="0 0 500 74.2"
	 style="enable-background:new 0 0 500 74.2;" xml:space="preserve">
<style type="text/css">
	.st0{fill:#EBEAEB;}
</style>
<g id="g10" transform="matrix(1.25,0,0,-1.25,0,74.194997)">
	<path id="path14" class="st0" d="M16.9,57.7L0,29.1L16.9,0.5h15.4L37.5,9L32,17.8h-4.6l-6.7,11.3l6.7,11.3h4.8L26.8,49l5.4,8.7
		C32.2,57.7,16.9,57.7,16.9,57.7z"/>
	<path id="path18" class="st0" d="M36,57.7L30.7,49l5.4-8.7h4.6l6.7-11.3l-6.7-11.3h-4.9L41.4,9l-5.2-8.5h14.7l16.9,28.6L50.8,57.7
		C50.8,57.7,36,57.7,36,57.7z"/>
	<path id="path22" class="st0" d="M79.2,58.4V1.4h39.6v18.3h-18.1v38.7H79.2z"/>
	<path id="path76" class="st0" d="M156.9,40.4c6.7,0,10.9-5.1,10.9-11.2c0-6.6-4.5-11.1-10.9-11.1c-6.4,0-10.9,4.5-10.9,11.1
		C146,35.3,150.2,40.4,156.9,40.4 M156.9,59.4c-17.7,0-32.2-11.8-32.2-29.8c0-18.5,14.4-29.5,32.2-29.5s32.2,11.1,32.2,29.5
		C189.1,47.6,174.6,59.4,156.9,59.4"/>
	<path id="path80" class="st0" d="M250.3,58.4l-18.2-26.9l20.8-30.6h-24.1l-6.6,12.2c-0.6,1.1-1,2.3-1.2,3.5h-0.6
		c-0.4-1.4-0.9-2.7-1.6-4l-6.5-11.8h-24.1l20.4,30.6l-18.3,26.9h23.9l4.3-8.2c0.8-1.5,1.3-3.1,1.8-4.7h0.5c0.4,1.7,1.1,3.2,1.9,4.7
		l4,8.2H250.3z"/>
	<path id="path84" class="st0" d="M282.6,21.7l3.9,17.6h0.8c0.4-2.4,0.8-5,1.4-7.4l2.5-10.1H282.6L282.6,21.7z M278.8,8.1h16
		l1.9-7.2h22.4l-20.8,57.5h-23.4L254.7,0.9h22.4L278.8,8.1L278.8,8.1z"/>
	<path id="path130" class="st0" d="M330.5,58.4h21.8l8-30.2h0.5c0.4,2.5,0.8,5.2,1.5,7.6l6.6,22.6h21.5L400,0.9h-20.5l-2.9,31.5
		h-0.4c-0.4-1.9-0.8-3.9-1.4-5.7l-8.4-25.8h-12.4l-7.6,24.3c-0.6,2.4-1.2,4.7-1.3,7.2h-0.7c-0.2-2.3-0.3-4.7-0.5-6.9l-2.5-24.6
		h-20.5L330.5,58.4L330.5,58.4z"/>
</g>
</svg>
