<?xml version="1.0" encoding="utf-8"?>
<!-- Generator: Adobe Illustrator 25.1.0, SVG Export Plug-In . SVG Version: 6.00 Build 0)  -->
<svg version="1.1" id="Calque_1" xmlns="http://www.w3.org/2000/svg" xmlns:xlink="http://www.w3.org/1999/xlink" x="0px" y="0px"
	 viewBox="0 0 2500 2500" style="enable-background:new 0 0 2500 2500;" xml:space="preserve">
<style type="text/css">
	.st0{fill-rule:evenodd;clip-rule:evenodd;fill:#FF4A2E;fill-opacity:0;}
	.st1{fill-rule:evenodd;clip-rule:evenodd;fill:#E8E8E8;}
	.st2{fill:#E8E8E8;stroke:#FFFFFF;stroke-width:27.3662;stroke-miterlimit:33.89;}
	.st3{fill:#E8E8E8;stroke:#FFFFFF;stroke-width:27.3662;stroke-linecap:round;stroke-linejoin:round;stroke-miterlimit:33.89;}
	.st4{fill-rule:evenodd;clip-rule:evenodd;}
</style>
<path class="st0" d="M0,0h2500v2500H0V0z"/>
<path class="st1" d="M2389.7,1476.1c-65.6-18.1-137.3-19.9-202.9,0c-587.1,178.7-1191.5,364.4-1779.5,541.4
	c-100.2,30.2-208.9-6.1-280.6-77.7c95.8,44.9,181.3,46.6,283.2,15.5c584.5-177.9,1185.5-364.4,1770.9-541.3
	C2265.4,1388,2331.8,1418.2,2389.7,1476.1L2389.7,1476.1z"/>
<path class="st1" d="M110.3,1165.2c88.1,71.7,159.7,74.3,288.4,35.4c562.9-173.5,1124.2-351.4,1687.1-524.1
	c85.5-25.9,215.9-31.9,283.2,35.4c-100.2-31.9-202.9-30.2-303.1,0c-581.1,175.3-1157,370.4-1741.5,536.2
	C212.2,1266.3,158.6,1231.7,110.3,1165.2L110.3,1165.2z M2376.8,1421.7c-94.1-57-171.8-39.7-296.2-11.2
	c-562.9,173.5-1124.2,351.4-1687.1,524c-108.8,35.4-249.5,38-276.3-45.8c46.6,43.2,93.2,57,193.4,38c29.4-5.2,62.2-17.3,102.7-27.6
	c581.1-175.3,1154.4-366.1,1738.1-531.9C2207.5,1356,2328.4,1362.1,2376.8,1421.7L2376.8,1421.7z"/>
<path class="st1" d="M120.7,1134.1c64.8,17.3,136.4,19.9,202,0c588-178.7,1173.4-364.4,1761.4-541.4c100.2-30.2,209,6,280.6,77.7
	c-95.9-45.8-181.3-46.6-283.2-15.5c-245.2,74.3-480.9,148.5-726.1,224.5c-46.6,34.5-99.3,69.9-136.4,117.4c2.6-13,6-25,8.6-37.1
	c3.5-21.6-18.1-31.1-39.7-26.8c-286.1,88.7-572.5,176.5-859.1,263.4C244.1,1221.3,178.5,1192,120.7,1134.1L120.7,1134.1z
	 M302.8,1473.5c-8.6,25.9-14.7,56.1,0,80.3c14.7,26.8,29.4,38,54.4,55.3c28.5,19.9,57,36.3,82,62.2c10.4,9.5,18.1,22.4,26.8,34.5
	c4.3-11.2,11.2-21.6,13-32.8c3.5-25-6.9-51.8-23.3-69.9c-31.9-34.5-83.7-59.6-116.6-89.8C322.7,1499.4,313.2,1491.6,302.8,1473.5
	L302.8,1473.5z M1511.6,1115.1c-21.6,12.1-43.2,23.3-64.7,35.4c0,46.6-1.7,107.1-1.7,141.6c0,39.7,1.7,69.9,22.4,105.3l54.4-38.8
	c-3.4-6.9-8.6-16.4-10.4-19.9c-1.7-2.6,0-152,0-205.5L1511.6,1115.1L1511.6,1115.1z M1521.1,1046.1l-39.7,48.4l-41.4-26.8l41.4-50.1
	L1521.1,1046.1L1521.1,1046.1z M2180.8,1093.6c-16.4,13.8-38,35.4-50.1,42.3c-13.8,8.6-31.9-12.1-33.7-25.9
	c-1.7-13.8,4.3-19,13.8-28.5c25-25,63-51.8,79.4-82.9c19-37.1-52.7-88.1-82.9-64.8c-21.6,17.3-74.3,51.8-75.1,65.6
	c-0.9,25.9,0,94.1-0.9,140.7c9.5,18.1,16.4,28.5,32.8,41.4c12.9,10.4,24.2,15.5,40.6,12.1c28.5-7.8,50.9-27.6,74.3-44
	C2179.9,1131.5,2179.9,1112.6,2180.8,1093.6z M2097.9,1054.7c0.9-19.9,0.9-40.6,1.8-61.3c11.2-28.5,42.3,7.8,33.7,20.7
	C2127.2,1022.8,2110,1040.9,2097.9,1054.7L2097.9,1054.7z M2299.9,790.5c-21.6,11.2-43.2,21.6-64.7,31.9
	c-0.9,88.1-3.5,214.1-2.6,265.1c0,26.8,4.3,45.8,22.4,65.6c17.3-12.1,34.5-25,51.8-37.1c-6.1-25.9-10.4-34.5-10.4-62.2
	C2297.3,1004.6,2299,878.6,2299.9,790.5z M1862.1,1008.1c-21.6,10.4-44,19.9-65.6,30.2c0.9,56.1,0.9,134.7,2.6,168.4
	c1.7,42.3,47.5,71.7,57,67.3c26.7-17.3,40.6-29.4,61.3-53.5c6.9,13,11.2,18.1,23.3,27.6c16.4-13,33.7-25.9,50.9-39.7
	c-14.7-19-12.9-15.5-13.8-24.2c-0.9-38-0.9-140.7-0.9-211.5c-21.6,11.2-42.3,22.5-63.9,33.7c-0.9,52.7-1.7,105.3-3.4,158
	c0,19-41.4,69.9-50.1,11.2C1855.3,1143.6,1861.3,1064.2,1862.1,1008.1L1862.1,1008.1z M1742.2,1107.4c-24.2-18.1-41.4-27.6-69.9-38
	c-33.7,21.6-65.6,41.4-95,69.1c-7.8,7.8-9.5,14.7-10.4,25c-1.7,38.9-6,82,0,120c2.6,12.9,8.6,30.2,18.1,39.7
	c13,14.7,25.9,17.3,44,22.4c19.9-18.1,36.3-33.7,53.5-54.4c6.5,21.4,14.9,42.2,25,62.2c2.6,6,13,18.1,5.2,24.2
	c-6.1,6.1-65.6,2.6-77.7,5.2c-19,3.5-54.4,19-59.6,40.6c-0.9,3.5-2.6,6,2.6,7.8c40.6-7.8,80.3-6,121.7,9.5c25-33.6,50.4-67,76-100.2
	c-17.3-28.5-30.2-53.5-31.1-87.2C1743,1223.9,1743,1155.7,1742.2,1107.4L1742.2,1107.4z M1644.6,1134.1c-10.4,7.8-9.5,6-12.9,22.4
	c-4.3,20.7-5.2,86.3-0.9,104.5c0.9,4.3,3.4,23.3,12.1,18.1c7.8-4.3,20.7-19,30.2-28.5c6.9-32.8,6.1-64.7,6.9-98.4
	C1667.9,1146.2,1656.7,1140.2,1644.6,1134.1L1644.6,1134.1z M1050.6,1590.9c25-10.4,49.2-21.6,73.4-31.9
	c0.9-102.7,1.7-251.3,3.4-308.3c0.9-18.1,20.7-68.2,43.2-41.4c11.2,13,9.5,32.8,9.5,46.6v297c25-11.2,50.9-21.6,76.8-32.8
	c0-103.6,0-253.8,1.7-310.8c0-16.4,13.8-60.4,38.9-40.6c13.8,11.2,12.9,23.3,12.9,37.1c0.9,43.2,0,197.7,2.6,244.3
	c2.6,58.7,49.2,71.7,98.4,71.7c7.8,0,8.6-1.7,13-1.7c-32-35.4-37.1-59.6-37.1-103.6c0-46.6,0-202.9-1.7-252.1
	c-1.7-38-23.3-100.2-76.9-88.9c-31.9,6.9-49.2,39.7-70.8,63c-14.7-8.6-47.5-35.4-63.9-24.2c-16.4,11.2-66.5,48.4-83.8,64.8
	c-28.5,27.6-35.4,36.3-35.4,71.7C1054,1312,1052.3,1476.9,1050.6,1590.9L1050.6,1590.9z M1075.6,1111.7c-4.3,30.2-7.8,50.1-19,78.6
	c-71.7,56.1-216.7,22.5-206.4-10.3C946.1,1181.6,1017.7,1155.7,1075.6,1111.7z M808.8,1602.1c0-65.6,0.9-161.4,0-198.6
	c-0.9-19-7.8-25.1-16.4-34.5c8.6-6.9,42.3-42.3,52.7-39.7c9.5,1.7,16.4,20.7,20.7,28.5c12.1-12.9,27.6-28.5,37.1-38
	c20.7-18.1,44.9-24.2,65.6,0.9c11.2,13.8,18.1,37.1,19,53.5c0.9,31.1,0,107.1,0,160.6c-19.9,10.4-48.4,25.9-59.6,30.2
	c-3.4,0.9-6-0.9-6-3.5c-0.9-27.6,0.9-125.2,0.9-155.4c0-7.8-0.9-28.5-10.4-34.5c-8.6-6-19.9,6.9-24.2,13.8
	c-13,17.3-13,29.4-13.8,50.1c-0.9,27.6-2.6,90.6-3.4,135.5C850.2,1581.4,829.5,1591.8,808.8,1602.1L808.8,1602.1z M602.4,1467.4
	c0-14.7,0-36.3,0.9-45.8s0.9-6.9,3.5-9.5c32.8-19,76.8-49.2,112.2-25.9c16.4,10.4,25,23.3,34.5,38.9v129.5
	c1.7,13,6.9,22.4,12.1,34.5c-14.7,13.8-29.4,28.5-44,42.3c-10.4-9.5-16.4-16.4-24.2-28.5c-12.1,17.3-21.6,32-39.7,43.2
	c-11.2,6.9-20.7,7.8-31.9,0.9c-23.3-15.5-47.5-54.4-42.3-88.9c2.6-17.3,19.9-37.1,31.9-48.4c22.5-20.7,45.8-32.8,71.7-45.8
	c-2.6-11.2-2.6-23.3-15.5-27.6C648.2,1429.4,619.7,1455.3,602.4,1467.4L602.4,1467.4z M686.2,1495.9c-16.4-0.9-67.3,63.9-25,89.8
	c12.1,6.9,21.6-17.3,27.6-25.9C687.9,1538.2,687.1,1517.5,686.2,1495.9L686.2,1495.9z M378.8,1403.5c44-12.1,82-21.6,118.3-50.9
	c29.4-24.2,41.5-44.9,50.9-78.6c-52.7,23.3-101.9,40.6-159.7,44c-11.2,0.9-13.8,0-20.7,0c-21.6,35.4-55.3,85.5-52.7,129.5
	c0.9,8.6,0,11.2,7.8,19.9c42.3,47.5,107.1,83.7,154.6,126.9c14.7,12.9,21.6,31.9,23.3,52.7c2.6,32.8-9.5,57.8-23.3,86.3
	c-40.6-17.3-81.2-38-126.1-42.3c-48.4-5.2-92.4-6.1-133.8,23.3c-38.9,27.6-58.7,82.9-20.7,119.2c21.6,19.9,45.8,28.5,73.4,31.1
	c68.2,6.9,109.6-28.5,154.5-75.1c14.7,5.2,29.4,9.5,43.2,14.7c31.9-46.6,57.8-95,76.8-147.6c6.9-19,13-57,5.2-76.8
	c-16.4-48.4-87.2-88.9-125.2-117.4c-19.9-14.7-35.4-25.9-50.9-44C368.5,1410.4,370.2,1406.1,378.8,1403.5L378.8,1403.5z
	 M395.2,1773.1c-37.1-24.2-65.6-35.4-111.4-34.5c-21.6,0-63,19.9-54.4,47.5C249.3,1848.2,368.5,1808.5,395.2,1773.1z"/>
<path class="st2" d="M1484.9,1101.3c-20.8,11.2-42.3,23.3-63.9,35.4c-0.9,46.6-1.7,107.1-1.7,141.6c0,39.7,1.7,69.9,22.4,105.3
	c18.1-13,36.3-25.9,54.4-39.7c-3.5-6.1-9.5-15.5-11.2-19c-0.9-2.6,0.9-152,0.9-205.5C1485.7,1108.2,1484.9,1101.3,1484.9,1101.3
	L1484.9,1101.3z M1495.2,1032.3l-40.6,48.4l-40.6-27.6l40.6-49.2L1495.2,1032.3z M2154.9,1079.7c-16.4,13.8-38.9,35.4-50.1,42.3
	c-14.7,8.6-31.9-13-33.7-25.9c-1.7-13.8,4.3-19,13.8-28.5c24.2-25,63-51.8,79.4-82.9c19-37.1-52.7-88.1-82.9-64.8
	c-21.6,17.3-74.3,51.8-75.1,65.6c-1.7,25.9-0.9,94.1-0.9,140.7c8.6,18.1,16.4,28.5,32.8,41.4c12.9,10.4,24.2,15.5,40.6,11.2
	c28.5-6.9,50.1-26.8,73.4-43.2L2154.9,1079.7L2154.9,1079.7z M2072,1040.9c0-20.7,0.9-40.6,0.9-61.3c12.1-28.5,42.3,6.9,34.5,19.9
	C2101.3,1008.9,2084.1,1027.1,2072,1040.9z M2274,776.7c-21.6,10.4-43.2,21.6-65.6,31.9c-0.9,88.1-2.6,214.1-1.7,265.1
	c0,26.8,4.3,45.8,21.6,65.6c18.1-12.1,35.4-25,52.7-37.1c-6.9-25.9-10.4-34.5-10.4-62.2C2270.5,990.8,2273.2,864.8,2274,776.7
	L2274,776.7z M1836.3,994.3c-22.4,9.5-44,19.9-65.6,30.2c0.8,56.1,0.8,134.7,2.6,167.5c1.7,43.2,46.6,72.5,57,68.2
	c25.9-17.3,40.6-29.4,60.4-53.5c7.8,13,12.1,18.1,23.3,27.6c17.2-12.9,34.5-26.8,51.8-39.7c-15.6-19-13-15.5-13.8-24.2
	c-1.7-38-0.9-141.6-1.7-211.5c-20.7,11.2-41.4,22.5-63,33.7c-0.9,52.7-2.6,105.3-3.5,157.1c-0.9,19.9-41.5,69.9-50.1,12.1
	C1829.3,1129.8,1835.4,1049.5,1836.3,994.3L1836.3,994.3z M1716.2,1092.7c-24.2-17.3-41.4-26.8-69.9-38
	c-34.5,22.5-65.6,41.5-95,69.9c-8.6,7.8-9.5,13.8-10.4,25c-1.7,38-6.1,81.2,0,120c1.7,13,8.6,30.2,17.3,39.7
	c13.8,14.7,25.9,17.3,44.9,22.4c19.9-18.1,36.3-33.7,53.5-54.4c6.9,22.4,13.8,41.4,25.1,62.2c2.6,6,12.9,17.3,5.2,24.2
	c-6.9,6-65.6,2.6-77.7,5.2c-19,2.6-54.4,19-59.6,40.6c-0.9,3.4-2.6,6,2.6,6.9c40.6-6.9,80.3-5.2,121.7,10.4
	c25-33.7,50.1-67.3,76-100.2c-17.2-28.5-30.2-53.5-31.9-87.2C1717.1,1210.1,1717.1,1141.9,1716.2,1092.7L1716.2,1092.7z
	 M1618.7,1120.3c-10.4,7.8-10.4,6-13,21.6c-4.3,21.6-6,87.2-0.9,105.3c0.9,4.3,2.6,23.3,12.1,18.1c6.9-4.3,19.9-19,30.2-28.5
	c6.1-32.8,5.2-64.8,6.1-98.4C1642,1132.4,1629.9,1126.4,1618.7,1120.3L1618.7,1120.3z M782,1588.3c0-66.5,0.9-162.3,0-198.6
	c-0.9-19.9-6.9-25-15.5-34.5c7.8-6.9,42.3-42.3,52.7-40.6c9.5,2.6,15.5,21.6,19.9,28.5c13-12.1,27.6-28.5,38-37.1
	c19.9-18.1,44.9-25,65.6,0.9c11.2,13.8,18.1,36.3,19,53.5c0.9,31.1,0,107.1,0,160.6c-19.9,9.5-48.4,25-59.6,30.2
	c-4.3,0.9-6-0.9-6.9-3.4c-0.9-27.6,1.7-125.2,0.9-155.4c0-7.8,0-28.5-9.5-34.5s-19.9,6.9-25,13c-12.1,18.1-12.1,30.2-13,50.9
	c-0.9,26.8-2.6,90.7-3.5,135.6C824.1,1567.8,803.1,1578.1,782,1588.3L782,1588.3z M576.5,1453.6c0-15.5,0-37.1,0.9-45.8
	c0.9-9.5,0-6.9,3.4-9.5c31.9-19,76-49.2,112.2-25.9c15.5,10.4,24.2,23.3,34.5,38.9v129.5c1.7,13,6,22.5,12.1,34.5
	c-14.7,13.8-30.2,28.5-44.9,42.3c-10.4-9.5-15.5-16.4-23.3-28.5c-13,16.4-21.6,31.9-39.7,43.2c-11.2,6.9-20.7,7.8-31.9,0.9
	c-23.3-15.5-47.5-54.4-42.3-88.9c2.6-18.1,19.9-37.1,31.9-48.4c21.6-20.7,44.9-32.8,71.7-45.8c-2.6-11.2-2.6-23.3-16.4-27.6
	C622.3,1415.6,592.9,1441.5,576.5,1453.6L576.5,1453.6z M660.3,1482.1c-16.4-0.9-67.3,63.9-25.9,88.9c13,7.8,22.5-16.4,28.5-25
	C662,1524.4,661.1,1503.7,660.3,1482.1L660.3,1482.1z"/>
<path class="st1" d="M1484.9,1101.3c-20.8,11.2-42.3,23.3-63.9,35.4c-0.9,46.6-1.7,107.1-1.7,141.6c0,39.7,1.7,69.9,22.4,105.3
	c18.1-13,36.3-25.9,54.4-39.7c-3.5-6.1-9.5-15.5-11.2-19c-0.9-2.6,0.9-152,0.9-205.5C1485.7,1108.2,1484.9,1101.3,1484.9,1101.3
	L1484.9,1101.3z M1495.2,1032.3l-40.6,48.4l-40.6-27.6l40.6-49.2L1495.2,1032.3z M2154.9,1079.7c-16.4,13.8-38.9,35.4-50.1,42.3
	c-14.7,8.6-31.9-13-33.7-25.9c-1.7-13.8,4.3-19,13.8-28.5c24.2-25,63-51.8,79.4-82.9c19-37.1-52.7-88.1-82.9-64.8
	c-21.6,17.3-74.3,51.8-75.1,65.6c-1.7,25.9-0.9,94.1-0.9,140.7c8.6,18.1,16.4,28.5,32.8,41.4c12.9,10.4,24.2,15.5,40.6,11.2
	c28.5-6.9,50.1-26.8,73.4-43.2L2154.9,1079.7L2154.9,1079.7z M2072,1040.9c0-20.7,0.9-40.6,0.9-61.3c12.1-28.5,42.3,6.9,34.5,19.9
	C2101.3,1008.9,2084.1,1027.1,2072,1040.9z M2274,776.7c-21.6,10.4-43.2,21.6-65.6,31.9c-0.9,88.1-2.6,214.1-1.7,265.1
	c0,26.8,4.3,45.8,21.6,65.6c18.1-12.1,35.4-25,52.7-37.1c-6.9-25.9-10.4-34.5-10.4-62.2C2270.5,990.8,2273.2,864.8,2274,776.7
	L2274,776.7z M1836.3,994.3c-22.4,9.5-44,19.9-65.6,30.2c0.8,56.1,0.8,134.7,2.6,167.5c1.7,43.2,46.6,72.5,57,68.2
	c25.9-17.3,40.6-29.4,60.4-53.5c7.8,13,12.1,18.1,23.3,27.6c17.2-12.9,34.5-26.8,51.8-39.7c-15.6-19-13-15.5-13.8-24.2
	c-1.7-38-0.9-141.6-1.7-211.5c-20.7,11.2-41.4,22.5-63,33.7c-0.9,52.7-2.6,105.3-3.5,157.1c-0.9,19.9-41.5,69.9-50.1,12.1
	C1829.3,1129.8,1835.4,1049.5,1836.3,994.3L1836.3,994.3z M1716.2,1092.7c-24.2-17.3-41.4-26.8-69.9-38
	c-34.5,22.5-65.6,41.5-95,69.9c-8.6,7.8-9.5,13.8-10.4,25c-1.7,38-6.1,81.2,0,120c1.7,13,8.6,30.2,17.3,39.7
	c13.8,14.7,25.9,17.3,44.9,22.4c19.9-18.1,36.3-33.7,53.5-54.4c6.9,22.4,13.8,41.4,25.1,62.2c2.6,6,12.9,17.3,5.2,24.2
	c-6.9,6-65.6,2.6-77.7,5.2c-19,2.6-54.4,19-59.6,40.6c-0.9,3.4-2.6,6,2.6,6.9c40.6-6.9,80.3-5.2,121.7,10.4
	c25-33.7,50.1-67.3,76-100.2c-17.2-28.5-30.2-53.5-31.9-87.2C1717.1,1210.1,1717.1,1141.9,1716.2,1092.7L1716.2,1092.7z
	 M1618.7,1120.3c-10.4,7.8-10.4,6-13,21.6c-4.3,21.6-6,87.2-0.9,105.3c0.9,4.3,2.6,23.3,12.1,18.1c6.9-4.3,19.9-19,30.2-28.5
	c6.1-32.8,5.2-64.8,6.1-98.4C1642,1132.4,1629.9,1126.4,1618.7,1120.3L1618.7,1120.3z M782,1588.3c0-66.5,0.9-162.3,0-198.6
	c-0.9-19.9-6.9-25-15.5-34.5c7.8-6.9,42.3-42.3,52.7-40.6c9.5,2.6,15.5,21.6,19.9,28.5c13-12.1,27.6-28.5,38-37.1
	c19.9-18.1,44.9-25,65.6,0.9c11.2,13.8,18.1,36.3,19,53.5c0.9,31.1,0,107.1,0,160.6c-19.9,9.5-48.4,25-59.6,30.2
	c-4.3,0.9-6-0.9-6.9-3.4c-0.9-27.6,1.7-125.2,0.9-155.4c0-7.8,0-28.5-9.5-34.5s-19.9,6.9-25,13c-12.1,18.1-12.1,30.2-13,50.9
	c-0.9,26.8-2.6,90.7-3.5,135.6C824.1,1567.8,803.1,1578.1,782,1588.3L782,1588.3z M576.5,1453.6c0-15.5,0-37.1,0.9-45.8
	c0.9-9.5,0-6.9,3.4-9.5c31.9-19,76-49.2,112.2-25.9c15.5,10.4,24.2,23.3,34.5,38.9v129.5c1.7,13,6,22.5,12.1,34.5
	c-14.7,13.8-30.2,28.5-44.9,42.3c-10.4-9.5-15.5-16.4-23.3-28.5c-13,16.4-21.6,31.9-39.7,43.2c-11.2,6.9-20.7,7.8-31.9,0.9
	c-23.3-15.5-47.5-54.4-42.3-88.9c2.6-18.1,19.9-37.1,31.9-48.4c21.6-20.7,44.9-32.8,71.7-45.8c-2.6-11.2-2.6-23.3-16.4-27.6
	C622.3,1415.6,592.9,1441.5,576.5,1453.6L576.5,1453.6z M660.3,1482.1c-16.4-0.9-67.3,63.9-25.9,88.9c13,7.8,22.5-16.4,28.5-25
	C662,1524.4,661.1,1503.7,660.3,1482.1L660.3,1482.1z"/>
<path class="st2" d="M352.9,1389.7c43.2-12.1,82-21.6,118.3-50.9c29.4-24.2,40.6-44.9,50.9-78.6c-52.7,23.3-101.9,40.6-160.6,44
	h-19.9c-21.6,35.4-56.1,85.5-52.7,129.5c0.9,8.6-0.9,11.2,6.9,19.9c42.3,47.5,107.9,82.9,155.4,126.1c14.7,13.8,21.6,32.8,23.3,53.5
	c2.6,32.8-9.5,57.9-23.3,85.5c-41.4-16.4-81.2-37.1-126.1-41.4c-49.2-5.2-92.4-6.9-133.8,22.5c-39.7,28.5-59.6,83.7-20.7,120
	c20.7,19,44.9,28.5,73.4,31.1c68.2,6.9,109.6-29.4,154.5-75.1c13.8,5.2,28.5,9.5,43.2,14.7c31.7-46.1,57.5-96,76.8-148.5
	c6.9-19,12.1-56.1,5.2-76.8c-17.3-47.5-87.2-88.1-125.2-116.6c-19.9-14.7-35.4-25.9-51.8-44C342.6,1396.6,344.3,1391.4,352.9,1389.7
	L352.9,1389.7z M276.1,1459.6c-7.8,25.9-13.8,55.3,0,80.3c15.5,26.8,30.2,38,55.3,54.4c28.5,19.9,56.1,37.1,81.2,62.2
	c10.4,10.4,19,23.3,27.6,35.4c4.3-11.2,11.2-21.6,13-33.7c3.4-25-6.9-50.9-24.2-69.1c-31.1-34.5-82.9-59.6-116.6-89.8
	C296.8,1485.5,287.3,1477.8,276.1,1459.6L276.1,1459.6z M369.3,1759.3c-37.1-24.2-65.6-35.4-111.4-34.5c-21.6,0-63,19.9-54.4,47.5
	C222.5,1833.5,342.6,1794.7,369.3,1759.3L369.3,1759.3z"/>
<path class="st1" d="M352.9,1389.7c43.2-12.1,82-21.6,118.3-50.9c29.4-24.2,40.6-44.9,50.9-78.6c-52.7,23.3-101.9,40.6-160.6,44
	h-19.9c-21.6,35.4-56.1,85.5-52.7,129.5c0.9,8.6-0.9,11.2,6.9,19.9c42.3,47.5,107.9,82.9,155.4,126.1c14.7,13.8,21.6,32.8,23.3,53.5
	c2.6,32.8-9.5,57.9-23.3,85.5c-41.4-16.4-81.2-37.1-126.1-41.4c-49.2-5.2-92.4-6.9-133.8,22.5c-39.7,28.5-59.6,83.7-20.7,120
	c20.7,19,44.9,28.5,73.4,31.1c68.2,6.9,109.6-29.4,154.5-75.1c13.8,5.2,28.5,9.5,43.2,14.7c31.7-46.1,57.5-96,76.8-148.5
	c6.9-19,12.1-56.1,5.2-76.8c-17.3-47.5-87.2-88.1-125.2-116.6c-19.9-14.7-35.4-25.9-51.8-44C342.6,1396.6,344.3,1391.4,352.9,1389.7
	L352.9,1389.7z M276.1,1459.6c-7.8,25.9-13.8,55.3,0,80.3c15.5,26.8,30.2,38,55.3,54.4c28.5,19.9,56.1,37.1,81.2,62.2
	c10.4,10.4,19,23.3,27.6,35.4c4.3-11.2,11.2-21.6,13-33.7c3.4-25-6.9-50.9-24.2-69.1c-31.1-34.5-82.9-59.6-116.6-89.8
	C296.8,1485.5,287.3,1477.8,276.1,1459.6L276.1,1459.6z M369.3,1759.3c-37.1-24.2-65.6-35.4-111.4-34.5c-21.6,0-63,19.9-54.4,47.5
	C222.5,1833.5,342.6,1794.7,369.3,1759.3L369.3,1759.3z"/>
<path class="st3" d="M1048.8,1097.9c-4.3,30.2-6.9,50.1-18.1,78.6c-71.7,56.1-216.7,22.5-206.4-10.4
	C920.2,1167.8,991.8,1141.9,1048.8,1097.9L1048.8,1097.9z"/>
<path class="st1" d="M1048.8,1097.9c-4.3,30.2-6.9,50.1-18.1,78.6c-71.7,56.1-216.7,22.5-206.4-10.4
	C920.2,1167.8,991.8,1141.9,1048.8,1097.9L1048.8,1097.9z"/>
<path class="st3" d="M1024.7,1577.1c24.2-11.2,48.7-21.8,73.4-31.9c0.9-102.7,0.9-252.1,3.4-308.2c0.9-18.1,19.9-68.2,43.2-41.5
	c11.2,12.1,9.5,31.9,9.5,46.6v297c25-11.2,50.9-22.4,76-33.7c0.9-102.7,0.9-253,1.7-310c0.9-16.4,14.7-60.4,39.7-40.6
	c13.8,11.2,12.9,23.3,12.9,37.1c0.9,43.2,0,196.9,1.7,244.4c2.6,58.7,50.1,71.7,99.3,71.7c7.8,0,8.6-1.7,12.9-2.6
	c-32.8-34.5-37.1-58.7-37.1-102.7c0-47.5,0-203.8-1.7-252.1c-1.7-38-23.3-100.2-76.8-88.9c-31.9,6-50.1,39.7-70.8,63
	c-14.7-8.6-48.4-35.4-63.9-25c-16.4,12.1-67.3,49.2-83.7,65.6c-28.5,27.6-35.4,36.3-36.3,71.7
	C1027.2,1298.2,1026.4,1463.1,1024.7,1577.1L1024.7,1577.1z"/>
<path class="st1" d="M1024.7,1577.1c24.2-11.2,48.7-21.8,73.4-31.9c0.9-102.7,0.9-252.1,3.4-308.2c0.9-18.1,19.9-68.2,43.2-41.5
	c11.2,12.1,9.5,31.9,9.5,46.6v297c25-11.2,50.9-22.4,76-33.7c0.9-102.7,0.9-253,1.7-310c0.9-16.4,14.7-60.4,39.7-40.6
	c13.8,11.2,12.9,23.3,12.9,37.1c0.9,43.2,0,196.9,1.7,244.4c2.6,58.7,50.1,71.7,99.3,71.7c7.8,0,8.6-1.7,12.9-2.6
	c-32.8-34.5-37.1-58.7-37.1-102.7c0-47.5,0-203.8-1.7-252.1c-1.7-38-23.3-100.2-76.8-88.9c-31.9,6-50.1,39.7-70.8,63
	c-14.7-8.6-48.4-35.4-63.9-25c-16.4,12.1-67.3,49.2-83.7,65.6c-28.5,27.6-35.4,36.3-36.3,71.7
	C1027.2,1298.2,1026.4,1463.1,1024.7,1577.1L1024.7,1577.1z"/>
<path class="st4" d="M1222.4,556.5c2.6-11.2,6.9-23.3,9.5-35.4c-7.8-4.3-20.7-2.6-31.1-3.4c0.9-15.5,2.6-31.1-3.5-45.8
	c-11.2,0.9-17.3,1.7-26.8,7.8c-7.8,1.7-15.5,2.6-22.5,3.4c-5.2,8.6-3.4,13.8-0.9,22.5c-23.3-6-38,0.9-58.7,10.4
	c-0.9,1.7-0.9,3.5-0.9,4.3c0.9,2.6,2.6,6,4.3,8.6c1.7,3.5,3.4,6.9,6,10.4l2.6,7.8c-0.9,2.6-1.7,4.3-2.6,6
	c-8.4-2.4-17.2-3.6-25.9-3.5c-11.2,1.7-19.9,3.5-30.2,7.8c-5.2,5.2-6,6-7.8,13c3.5,4.3,4.3,6,6,11.2c-4.3,7.8-6,8.6-13,13
	c-6,3.5-9.5,6-13,10.4c-2.6,11.2-2.6,20.7-1.7,31.9c3.5,9.5,5.2,12.1,12.1,19.9c13.8,4.3,21.6,8.6,30.2-5.2c1.7-4.3,5.2-6,4.3-10.4
	c-3.4-0.9-10.4,10.4-15.5,13c-6.9-1.7-11.2-2.6-17.3-6c-1.7-6-1.7-8.6-0.9-15.5c7.8-4.3,13-6.9,21.6-9.5c7.8-4.3,11.2-5.2,16.4-13
	c0.9-6,1.7-11.2,1.7-17.3h4.3c3.5-0.9,6-2.6,9.5-4.3c4.3,3.4,9.5,3.4,14.7,0c2.6,1.7,5.2,2.6,8.6,3.4c12.1,0,20.7-6.9,30.2-13
	c5.2,1.7,8.6,3.5,13.8,5.2c0,6,0,6-4.3,10.4c-15.5,3.5-30.2,6.9-44.9,10.4c-6.9,1.7-13,1.7-17.3,7.8c3.5,1.7,5.2,3.5,7.8,6
	c5.2,7.8,9.5,14.7,15.6,21.6c0,6,0,13-0.9,19c-1.7,4.3-1.7,6.9-4.3,10.4c-4.3,1.7-7.8,2.6-12.1,3.4h-9.5c2.6-6.9,7.8-14.7,2.6-19.9
	c-0.9,1.7-1.7,2.6-2.6,4.3l-7.8,18.1c-6,0.9-13,1.7-18.1,5.2c0.9,4.3,2.6,6.9,5.2,10.4c1.7,1.7,2.6,3.5,3.4,5.2l-28.5,77.7
	c-3.4-0.9-8.6-0.9-12.1-1.7c6-17.3,10.4-32.8,16.4-49.2c-6.9,0.9-5.2,0.9-10.4,4.3c-5.2,14.7-10.4,28.5-15.6,43.2
	c-6,1.7-11.2,1.7-17.3,2.6c0,17.3,0,34.5-0.9,51.8c6,0.9,12.1,1.7,18.1,1.7c4.3,1.7,8.6,2.6,13,3.4c19.9,30.2,42.3,61.3,80.3,69.1
	c37.1,3.4,75.1,2.6,112.2,6c24.2-6.9,49.2-13.8,74.3-20.7c19-11.2,38-23.3,57-35.4c2.6-11.2,5.2-23.3,6.9-35.4
	c2.6-7.8,4.3-13.8,9.5-20.7v-6c1.8-5.2,3.5-10.4,5.2-15.6c0-6,0-7.8-2.6-13v-18.1c2.2-7.2,5.7-13.9,10.4-19.9
	c4.3-3.4,7.8-6.9,11.2-10.4c-0.9-4.3-1.7-3.4-6.9-5.2c0.9-9.5,0.9-19,1.7-28.5c0.9-0.9,1.8-1.7,2.6-3.4c-0.9-0.9-1.8-1.7-3.5-1.7
	c6.9-5.2,12.1-7.8,19.9-11.2l2.6-2.6c-3.4-0.9-5.2-0.9-8.6-0.9c-1.8-0.9-3.5-0.9-4.3-1.7v-4.3c2.6-4.3,3.5-6.9,3.5-12.1
	c2.6-6.9,1.7-12.1,0-19c0.9-1.7,2.6-3.4,3.4-5.2c7.8-9.5,14.7-19,22.4-28.5c2.6-5.2,6.9-8.6,6.9-14.7c-1.7,0.9-3.5,2.6-5.2,3.4
	c-13.8,12.1-26.7,24.2-39.7,35.4l-5.2-5.2c0.9-6,3.4-13,3.4-19c-19.9-11.2-39.7-22.5-59.6-33.7c-2.6-5.2-1.7-11.2-6.9-14.7
	c-4.3,0.9-8.6,1.7-13,1.7c-8.2-5.4-16.6-10.6-25-15.5c-6.1-0.9-6.9-2.6-6.1,3.5c6.1,4.3,12.1,9.5,18.1,13.8
	c-19,9.5-40.6,12.1-61.3,17.3C1225,557.4,1223.2,557.4,1222.4,556.5L1222.4,556.5z M1322.5,572.1c-5.2,10.4-9.5,22.5-13,34.5
	c17.3,0.9,44-0.9,56.1-14.7C1351,584.1,1336.3,575.5,1322.5,572.1L1322.5,572.1z M1146.4,761.1c-16.4,3.5-26.8,7.8-41.4,15.6
	c-0.9,10.4-0.9,20.7-0.9,31.1c9.5,5.2,14.7,5.2,25.9,6C1135.2,796.6,1140.3,778.4,1146.4,761.1z M1193,768.1
	c-19,13.8-33.7,24.2-48.4,43.2c19.9-0.9,27.6-4.3,45.8-12.1C1193.9,787.1,1194.7,781,1193,768.1z M1063.5,714.5
	c-6.9,19.9-17.3,40.6-19,61.3c7.8,1.7,16.4,3.4,24.2,5.2c0.9-9.5,0.9-19.9,1.7-29.4C1069.5,739.6,1071.3,724,1063.5,714.5
	L1063.5,714.5z M1134.3,535.8c-6,0.9-9.5,2.6-14.7,5.2c-2.6,4.3-3.5,6.9-3.5,12.1c1.7,5.2,1.7,6,6,9.5c5.2,0,7.8,0.9,11.2,2.6
	c0,2.6,0.9,4.3,0.9,6c6,1.7,9.5,2.6,15.5,3.4c2.6-1.7,7.8-4.3,10.4-5.2c-5.2-2.6-9.5-5.2-14.7-8.6
	C1141.2,553.1,1137.8,544.4,1134.3,535.8L1134.3,535.8z"/>
<path class="st1" d="M999.6,780.1v39.7l83.8-5.2l6.9-26.8l-11.2-0.9l-4.3,4.3l-4.3,2.6l-0.9-6l-40.6-5.2L999.6,780.1L999.6,780.1z
	 M1301,762l2.6,2.6l4.3-2.6l2.6-5.2l4.3-7.8l3.4-2.6l1.7,0.9l-2.6,4.3l-2.6,5.2l-0.9,6.9l-1.7,7.8l-4.3,5.2l-3.4,4.3l-1.7,9.5
	l-0.9,10.4l-3.5,9.5l-5.2,8.6l-10.4,11.2l-17.3,18.1l-18.1,11.2l-19.9,8.6l-6.9,4.3l0.9,4.3l6,1.7l6.9,1.7l6.9,4.3l7.8-1.7l15.6-6
	l14.7-7.8l9.5-8.6l20.7-24.2l9.5-16.4l2.6-13.8l2.6-21.6l3.4-22.4l0.9-6.9l5.2-6l0.9-5.2l3.4-4.3l4.3-6v-6l-6.1-2.6l-18.1,2.6
	l-21.6,9.5l-69.9,28.5l-13,8.6l-5.2,5.2l-1.7,9.5l-2.6,9.5l-2.6,4.3l-24.2,11.2l-20.7,7.8l-5.2,3.4l-3.4,1.7l-3.4-2.6l-9.5,0.9
	l-6,2.6l-2.6-3.5h-4.3l-4.3,1.7l-9.5-4.3l-6-1.7l-3.4,1.7v4.3l12.1,7.8l14.7,2.6l7.8,0.9v2.6l-6,1.7l-20.7-0.9l-11.2-5.2l-2.6-1.7
	l-3.5,2.6l-2.6-4.3h-3.5l-3.5,4.3l3.5,5.2l9.5,7.8l8.6,4.3l18.1,1.7l23.3-0.9l9.5-0.9l1.7,0.9l-4.3,2.6l-10.4,1.7l-18.1,2.6
	l-17.3-1.7l-12.1-4.3l-8.6-5.2l-4.3-0.9l-4.3,1.7l3.5,6.9l18.1,19l13,6.9l4.3,3.4h3.4l16.4-4.3l12.1-3.4l22.5-5.2l19.9-1.7l16.4-0.9
	l11.2-4.3l25.9-16.4l26.8-21.6l12.1-15.5l6.9-19.9l5.2-19l1.7-12.1v-5.1l1.7-5.2l4.3,0.9L1301,762L1301,762z M1196.5,820.7l18.1-7.8
	l11.2-12.1l4.3-6h-4.3l-6.9,1.7v-5.2l-2.6-0.9l-2.6,6.9l-7.8,10.4l-8.6,7.8L1196.5,820.7L1196.5,820.7z M1279.4,769.8l-6,5.2
	l-4.3,5.2l-7.8,16.4l-8.7,16.4l-9.5,6.9l-7.8,6l-10.4,7.8l0.9-4.3l6.9-7.8l9.5-10.4l6-15.5l5.2-15.5l1.7-7.8l1.7-2.6l3.5,2.6l-1.8,6
	l1.8,6h3.4l1.7-6l5.2-4.3l4.3-5.2C1275,768.9,1279.4,768.9,1279.4,769.8L1279.4,769.8z M1327.7,712.8l4.3-4.3l2.6-2.6l-2.6-5.2
	l-1.8-6.9v-8.6l-3.4-1.7l-14.7,6.9l-37.1,15.5l-34.5,13.8l-20.7,9.5l-6.9,1.7l-4.3,4.3l-0.9,15.5v9.5l2.6,3.4h7.8l64.8-30.2
	l31.9-14.7L1327.7,712.8L1327.7,712.8z M1304.4,705v6.9l12.9-3.4v-8.6L1304.4,705z M1223.2,737.8l10.4-4.3v8.6l-9.5,4.3
	L1223.2,737.8z M1250,726.6v7.8l10.4-4.3v-6.9L1250,726.6L1250,726.6z M1275.9,715.4v6.9l12.1-3.4l0.9-6.9L1275.9,715.4z
	 M1373.5,690.4l-6.9-5.2l-11.2-2.6h-11.2l-5.2,2.6l-0.9,6.9l-0.9,8.6l2.6,2.6l13.8,1.7h12.1l5.2-5.2L1373.5,690.4L1373.5,690.4z
	 M1340.6,810.4l9.5-13.8l5.2-15.5v-7.8l-0.9-8.6l-0.9-12.1v-13.8l0.9-5.2l-1.7-2.6l-5.2,0.9l-9.5,27.6l-1.7,19l-0.9,19.9v9.5
	l1.7,2.6h3.5V810.4z M1083.4,875.1l-10.4-10.4l-7.8-6.9l-5.2-6l-3.4-2.6l-5.2,1.7l4.3,14.7l6,7.8l6,4.3l8.6,1.7h6L1083.4,875.1
	L1083.4,875.1z M1175.7,514.2c0-6.9,0-13,1.7-19.9c-6-6.9-6-6-14.7-6c-8.6,2.6-9.5,1.7-10.4,10.4c4.3,6,7.8,11.2,10.4,17.3
	C1168.8,516.8,1170.6,516.8,1175.7,514.2L1175.7,514.2z M1183.5,480.5c-0.9,10.4-2.6,20.7-2.6,31.9c0.9,0,1.7,0.9,2.6,1.7
	c6.9-1.7,7.8-1.7,12.1-6.9v-12.1C1193.9,486.6,1193,481.4,1183.5,480.5z M1130.8,509c8.6,0.9,16.4,2.6,25,5.2c0.9,5.2-1.7,5.2-6,7.8
	c-5.2,0-11.2,0.9-16.4,0.9c0.9,1.7,1.7,2.6,1.7,3.4c-4.3,2.6-9.5,5.2-13.8,8.6c-2.6,0.9-4.3,2.6-6,3.4c-2.6,4.3-2.6,3.5-6.9,3.5
	c0-1.7-0.9-3.5-0.9-5.2c1.7-4.3,3.4-8.6,6.9-12.1c-6,0.9-11.2,2.6-16.4,3.4C1091.1,514.2,1122.2,510.7,1130.8,509L1130.8,509z
	 M1155.9,537.5l-4.3,0.9l-1.7,11.2l0.9,4.3l5.2,2.6l5.2-1.7l0.9-6.9l1.7-4.3l2.6,6l8.6,0.9h4.3l1.7-4.3v-6.9l2.6-1.7l2.6,8.6
	l1.7,4.3h12.1l4.3-4.3v-7.8l-0.9-5.2l3.4-2.6l2.6,4.3v15.5l4.3,0.9l3.4-3.4l2.6-5.2v-6.9l-3.4-2.6l-4.3-1.7l6-2.6l1.7-4.3l-7.8-1.7
	l-31.9-1.7l-20.7,2.6L1149,528l-2.6,3.5l2.6,3.4h12.9L1155.9,537.5L1155.9,537.5z M1210.3,555.7h-25l-8.6,0.9l-4.3,2.6l0.9,4.3
	l6,3.4h6.9l23.3-5.2l2.6-1.7L1210.3,555.7L1210.3,555.7z M1122.2,571.2c-7.8-1.7-13.8,0-16.4-7.8c-4.3-0.9-8.6-1.7-12.9-3.4
	c-4.3-0.9-9.5-2.6-13.8-3.5c-10.4,1.7-20.7,4.3-31.1,6.9c-6,6-1.7,19.9-3.5,28.5c-6.9,4.3-14.7,9.5-21.6,13.8
	c-4.3,5.2-4.3,6-5.2,12.1c0.9,2.6,1.7,6,2.6,7.8c14.7-3.4,25-9.5,33.7-13.8c0.9-3.4,1.7-6.9,1.7-9.5v-8.6v-6c1.7-2.6,3.4-4.3,4.3-6
	c1.7,0.9,2.6,2.6,4.3,4.3c1.7,0.9,3.4,0.9,5.2,1.7c0.9-0.9,2.6-1.7,3.5-2.6v-7.8c3.4,2.6,6,4.3,8.6,6.9c1.7,0,6,0.9,8.6,0.9
	c-2.6-4.3-5.2-5.2-1.7-8.6l5.2,5.2c3.4,1.7,6.9,2.6,9.5,3.4C1113.6,583.3,1118.8,580.7,1122.2,571.2L1122.2,571.2z M1152.4,600.6
	l-25,5.2l-16.4,3.4l-12.9,4.3l-4.3,3.4l15.5,19v19l-1.7,13.8h12.1l11.2-2.6l5.2-3.4l-1.7-8.6l-4.3-9.5l18.1-3.5l15.5-3.4l-0.9-21.6
	l-4.3-9.5L1152.4,600.6L1152.4,600.6z M1307,552.2l5.2,9.5l-2.6,20.7l-7.8,16.4l-5.2,10.4h-6.9l-2.6-6l-8.6-4.3l-36.3,0.9l-13,6
	l-23.3,13l-17.3,9.5l-6.9,4.3l-6.9,0.9l-2.6-1.7v-25l-1.7-11.2l-8.6-2.6l-6.9-6l-2.6-4.3l5.2-4.3l45.8-8.6l31.1-7.8l27.6-5.2
	l26.7-5.2l10.4-0.9L1307,552.2L1307,552.2z M1284.5,613.5l-29.4,6.9l-27.6,8.6l-9.5,2.6l-13-1.7l19-13.8l19.9-7.8l19-2.6l15.5,2.6
	L1284.5,613.5L1284.5,613.5z M1375.2,618.7l-20.7,24.2l-8.6,4.3l-2.6,5.2l-12.1-3.4h-7.8l-21.6,9.5l-84.6,40.6l-48.4,20.7l-1.7-1.7
	v-19.9l-7.8-16.4l-6.9-9.5l-8.6-12.1l0.9-7.8l15.5-4.3l77.7-13l31.1-6.9l37.1-10.4l18.1-2.6l24.2-4.3l11.2-3.5l8.6-5.2l1.7,8.6
	L1375.2,618.7L1375.2,618.7z M1381.2,629.9l-8.6,6l-15.5,15.6l6.9,6l8.6,1.7h5.2l3.4-9.5V629.9z M1371.8,678.3l0.8-9.5l-33.7-7.8
	l-11.2-1.7l-19.9,6.9l-106.2,46.6l-13.8,6.9l-3.4,1.7l4.3,4.3l10.4,2.6l11.2-2.6l100.1-43.2l16.4-6l10.4-0.9l20.7,1.7l10.4,2.6
	L1371.8,678.3L1371.8,678.3z M1141.2,670.5l-29.4,6.9l-30.2,4.3l-13.8,4.3l-5.2,5.2l10.4,16.4l10.4,10.4l1.7,4.3l-0.9,12.1
	l-3.4,26.8l-1.7,13l4.3,4.3l13-6l44.9-21.6l14.7-7.8l0.9-4.3l0.9-21.6l-2.6-17.3l-7.8-17.3L1141.2,670.5L1141.2,670.5z
	 M1197.3,748.2l0.9-6.9l-4.3-4.3l-4.3-4.3l-5.2-2.6l-8.6-1.7l-8.6,0.9l-4.3,9.5l-6.9,28.5l-3.4,15.5l10.4-2.6l19-13.8L1197.3,748.2z
	 M1016,794.8l-0.9,13l13-0.9l0.9-11.2L1016,794.8L1016,794.8z M1042.8,795.7l-0.9,11.2h15.5v-10.4L1042.8,795.7L1042.8,795.7z"/>
</svg>
