<?xml version="1.0" encoding="utf-8"?>
<!-- Generator: Adobe Illustrator 25.1.0, SVG Export Plug-In . SVG Version: 6.00 Build 0)  -->
<svg version="1.1"
	 id="svg6" inkscape:version="0.91 r13725" sodipodi:docname="Paris logo 2019.svg" xmlns:cc="http://creativecommons.org/ns#" xmlns:dc="http://purl.org/dc/elements/1.1/" xmlns:inkscape="http://www.inkscape.org/namespaces/inkscape" xmlns:rdf="http://www.w3.org/1999/02/22-rdf-syntax-ns#" xmlns:sodipodi="http://sodipodi.sourceforge.net/DTD/sodipodi-0.dtd" xmlns:svg="http://www.w3.org/2000/svg"
	 xmlns="http://www.w3.org/2000/svg" xmlns:xlink="http://www.w3.org/1999/xlink" x="0px" y="0px" viewBox="0 0 600 527.4"
	 style="enable-background:new 0 0 600 527.4;" xml:space="preserve">
<style type="text/css">
	.st0{fill:#EBEAEB;}
</style>
<sodipodi:namedview  bordercolor="#666666" borderopacity="1" fit-margin-bottom="0" fit-margin-left="0" fit-margin-right="0" fit-margin-top="0" gridtolerance="10" guidetolerance="10" id="namedview8" inkscape:current-layer="svg6" inkscape:cx="368.21696" inkscape:cy="526.61287" inkscape:pageopacity="0" inkscape:pageshadow="2" inkscape:window-height="705" inkscape:window-maximized="1" inkscape:window-width="1366" inkscape:window-x="-8" inkscape:window-y="-8" inkscape:zoom="0.47990354" objecttolerance="10" pagecolor="#ffffff" showgrid="false">
	</sodipodi:namedview>
<path id="path4" inkscape:connector-curvature="0" sodipodi:nodetypes="sccccssssccsssccccccccccccccccsccssscccccccccccccccssccsssssccscc" class="st0" d="
	M56.4,375.3H0v149.1h34.1v-46.8h22.4c29.4,0,52.1-22.8,52.1-51.1S85.9,375.3,56.4,375.3z M56.4,445.6H34v-38.3h22.4
	c10.6,0,18.1,8.2,18.1,19.1C74.5,437.4,67,445.6,56.4,445.6z M420.6,375.3h34.1v149.1h-34.1V375.3z M384.6,426.5
	c0.1-28.3-22.9-51.2-51.1-51.1h-59.6v149.1h34.1v-46.8h17.3l26.9,46.8h36.6l-31.3-53.9C374.1,462.8,384.6,444.8,384.6,426.5z
	 M333.7,447.9h-25.6v-40.6h25.6c9.4,0,17,8.7,17,20.3C350.6,439.2,343.1,447.9,333.7,447.9z M158.8,375.3l-50.6,149.1h37.3l8.2-26.2
	c17.5,4.4,35.9,4.4,53.4,0l8.4,26.2h37.3l-50.6-149.1H158.8z M180.4,471.7c-6,0-11.9-0.7-17.6-2.1l17.6-55.3l17.6,55.3
	C192.3,470.9,186.4,471.6,180.4,471.7L180.4,471.7z M557.8,437.2c-23.1-6.9-32.5-10.9-32.5-20.3c0-7.1,6.8-11.2,16-11.2
	c14.8,0,20.9,7.9,26.1,15.3l28.4-15c-4.8-9.4-18.6-33.6-54.4-33.6c-25.2,0-50,16-50,45.4c0,35.1,33.5,41.7,43.9,45.4
	c10.4,3.6,30.8,6.3,30.8,19c0,8.9-9.2,12.2-21.3,12.2c-13.4,0-24.1-7.4-30.7-18.8l-29,15.2c2.1,6.3,19.1,36.8,59.5,36.8
	c31.8,0,55.4-16.8,55.4-45.9C600,458.6,587.5,445.9,557.8,437.2L557.8,437.2z"/>
<path id="path4-0" inkscape:connector-curvature="0" sodipodi:nodetypes="accccsscccccccsscccsca" class="st0" d="M483.7,203.9
	c-1.4,0-2.4,1.2-4,4.5c-33.9,74.3-96.4,109.8-162.5,110.3c-131.9,0.9-162.9-107.4-163.6-110.5l67.2,12.5c0.2,0.7,26.1,60,94,60
	c71.9,0,121.8-71.7,121.8-145.8C436.7,68,408.5,29.9,367.8,0L184.6,84.6c-1.7,0.8-1.3,3.2,0.5,3.5
	c101.3,23.5,118.7,96.4,113.8,137.8c-0.7,6.1,3.3,5.2,7.3-6.3c13.9-41.1,4-100.9-51-134.5c0,0,101.8-51,101.8-50.8
	c12.2,9.4,52.2,36.4,52.2,100.6S372,257.5,314.9,257.5c-56.7,0-76.4-57.8-76.9-58.8l-121.1-26.3c-1.9-0.5-3.7,1.1-3.6,3.1
	c10.6,92.4,84.4,167.9,191.6,167.9c88.9,0,149.3-48.9,174.9-117.8C485.8,209.5,485.6,203.9,483.7,203.9L483.7,203.9z"/>
</svg>
